<svg width="179" height="410" viewBox="0 0 179 410" fill="none" xmlns="http://www.w3.org/2000/svg">
<rect x="84" width="11" height="409.5" fill="black"/>
<ellipse cx="89.5" cy="205" rx="89" ry="86.5" fill="white"/>
<path d="M39.06 193.6V216H41.78V193.6H39.06ZM40.564 196.16H45.14C46.5907 196.16 47.764 196.512 48.66 197.216C49.5773 197.899 50.036 198.933 50.036 200.32C50.036 201.685 49.5773 202.72 48.66 203.424C47.764 204.128 46.5907 204.48 45.14 204.48H40.564V207.04H45.14C46.5907 207.04 47.8813 206.773 49.012 206.24C50.164 205.685 51.0707 204.907 51.732 203.904C52.4147 202.88 52.756 201.685 52.756 200.32C52.756 198.933 52.4147 197.739 51.732 196.736C51.0707 195.733 50.164 194.965 49.012 194.432C47.8813 193.877 46.5907 193.6 45.14 193.6H40.564V196.16ZM58.3663 201.28H55.8063V216H58.3663V201.28ZM62.8142 204.096L64.2223 201.984C63.8383 201.579 63.4116 201.312 62.9423 201.184C62.4943 201.035 62.0036 200.96 61.4703 200.96C60.7876 200.96 60.1156 201.227 59.4543 201.76C58.7929 202.293 58.2489 203.019 57.8223 203.936C57.4169 204.832 57.2143 205.867 57.2143 207.04H58.3663C58.3663 206.336 58.4303 205.707 58.5583 205.152C58.7076 204.597 58.9636 204.16 59.3263 203.84C59.6889 203.52 60.1903 203.36 60.8303 203.36C61.2569 203.36 61.6089 203.424 61.8863 203.552C62.1636 203.659 62.4729 203.84 62.8142 204.096ZM65.0263 208.64C65.0263 210.112 65.3569 211.435 66.0182 212.608C66.7009 213.76 67.6183 214.667 68.7703 215.328C69.9223 215.989 71.2129 216.32 72.6423 216.32C74.0929 216.32 75.3836 215.989 76.5143 215.328C77.6663 214.667 78.5729 213.76 79.2343 212.608C79.9169 211.435 80.2583 210.112 80.2583 208.64C80.2583 207.147 79.9169 205.824 79.2343 204.672C78.5729 203.52 77.6663 202.613 76.5143 201.952C75.3836 201.291 74.0929 200.96 72.6423 200.96C71.2129 200.96 69.9223 201.291 68.7703 201.952C67.6183 202.613 66.7009 203.52 66.0182 204.672C65.3569 205.824 65.0263 207.147 65.0263 208.64ZM67.6183 208.64C67.6183 207.616 67.8316 206.709 68.2583 205.92C68.7063 205.109 69.3036 204.48 70.0503 204.032C70.8183 203.584 71.6823 203.36 72.6423 203.36C73.6023 203.36 74.4556 203.584 75.2023 204.032C75.9703 204.48 76.5676 205.109 76.9943 205.92C77.4423 206.709 77.6663 207.616 77.6663 208.64C77.6663 209.664 77.4423 210.571 76.9943 211.36C76.5676 212.149 75.9703 212.779 75.2023 213.248C74.4556 213.696 73.6023 213.92 72.6423 213.92C71.6823 213.92 70.8183 213.696 70.0503 213.248C69.3036 212.779 68.7063 212.149 68.2583 211.36C67.8316 210.571 67.6183 209.664 67.6183 208.64ZM83.359 195.2C83.359 195.669 83.5297 196.075 83.871 196.416C84.2123 196.757 84.6177 196.928 85.087 196.928C85.5777 196.928 85.983 196.757 86.303 196.416C86.6443 196.075 86.815 195.669 86.815 195.2C86.815 194.709 86.6443 194.304 86.303 193.984C85.983 193.643 85.5777 193.472 85.087 193.472C84.6177 193.472 84.2123 193.643 83.871 193.984C83.5297 194.304 83.359 194.709 83.359 195.2ZM80.831 219.648L79.423 221.76C79.6363 222.037 79.8817 222.272 80.159 222.464C80.4363 222.656 80.7457 222.795 81.087 222.88C81.4283 222.987 81.8123 223.04 82.239 223.04C83.135 223.04 83.903 222.837 84.543 222.432C85.183 222.027 85.663 221.44 85.983 220.672C86.3243 219.904 86.495 218.987 86.495 217.92V201.28H83.935V217.6C83.935 218.283 83.8817 218.837 83.775 219.264C83.6683 219.691 83.4977 220 83.263 220.192C83.0497 220.384 82.7617 220.48 82.399 220.48C82.0577 220.48 81.7483 220.405 81.471 220.256C81.215 220.107 81.0017 219.904 80.831 219.648ZM97.471 216.32C99.0497 216.32 100.415 216.011 101.567 215.392C102.74 214.752 103.711 213.813 104.479 212.576L102.399 211.264C101.866 212.16 101.215 212.832 100.447 213.28C99.679 213.707 98.7937 213.92 97.791 213.92C96.7883 213.92 95.935 213.707 95.231 213.28C94.527 212.853 93.9937 212.235 93.631 211.424C93.2683 210.613 93.087 209.632 93.087 208.48C93.1083 207.349 93.3003 206.4 93.663 205.632C94.047 204.843 94.5803 204.245 95.263 203.84C95.967 203.413 96.8097 203.2 97.791 203.2C98.623 203.2 99.3483 203.381 99.967 203.744C100.586 204.107 101.066 204.608 101.407 205.248C101.77 205.888 101.951 206.645 101.951 207.52C101.951 207.669 101.919 207.861 101.855 208.096C101.791 208.309 101.727 208.469 101.663 208.576L102.687 207.104H92.127V209.28H104.703C104.703 209.237 104.703 209.141 104.703 208.992C104.724 208.821 104.735 208.661 104.735 208.512C104.735 206.955 104.458 205.611 103.903 204.48C103.348 203.349 102.548 202.485 101.503 201.888C100.479 201.269 99.2417 200.96 97.791 200.96C96.3403 200.96 95.0603 201.28 93.951 201.92C92.863 202.56 92.0097 203.456 91.391 204.608C90.7937 205.76 90.495 207.104 90.495 208.64C90.495 210.155 90.783 211.488 91.359 212.64C91.9563 213.792 92.7777 214.699 93.823 215.36C94.8897 216 96.1057 216.32 97.471 216.32ZM109.396 208.64C109.396 207.616 109.609 206.709 110.036 205.92C110.484 205.109 111.081 204.48 111.828 204.032C112.596 203.584 113.46 203.36 114.42 203.36C115.209 203.36 115.945 203.488 116.628 203.744C117.332 203.979 117.94 204.299 118.452 204.704C118.964 205.109 119.326 205.557 119.54 206.048V202.848C119.028 202.251 118.292 201.792 117.332 201.472C116.393 201.131 115.422 200.96 114.42 200.96C112.99 200.96 111.7 201.291 110.548 201.952C109.396 202.613 108.478 203.52 107.796 204.672C107.134 205.824 106.804 207.147 106.804 208.64C106.804 210.112 107.134 211.435 107.796 212.608C108.478 213.76 109.396 214.667 110.548 215.328C111.7 215.989 112.99 216.32 114.42 216.32C115.422 216.32 116.393 216.16 117.332 215.84C118.292 215.499 119.028 215.029 119.54 214.432V211.232C119.326 211.701 118.964 212.149 118.452 212.576C117.94 212.981 117.332 213.312 116.628 213.568C115.945 213.803 115.209 213.92 114.42 213.92C113.46 213.92 112.596 213.696 111.828 213.248C111.081 212.779 110.484 212.149 110.036 211.36C109.609 210.571 109.396 209.664 109.396 208.64ZM121.285 201.28V203.68H128.645V201.28H121.285ZM123.685 196.16V216H126.245V196.16H123.685ZM131.821 211.488L129.805 212.736C130.082 213.312 130.487 213.877 131.021 214.432C131.575 214.987 132.247 215.445 133.036 215.808C133.826 216.149 134.711 216.32 135.693 216.32C137.207 216.32 138.423 215.893 139.341 215.04C140.279 214.187 140.749 213.12 140.749 211.84C140.749 210.965 140.535 210.251 140.109 209.696C139.703 209.141 139.149 208.672 138.445 208.288C137.741 207.883 136.962 207.509 136.109 207.168C135.597 206.955 135.106 206.731 134.637 206.496C134.167 206.261 133.783 205.995 133.485 205.696C133.186 205.397 133.036 205.056 133.036 204.672C133.036 204.181 133.229 203.819 133.613 203.584C133.997 203.349 134.455 203.232 134.989 203.232C135.757 203.232 136.439 203.413 137.036 203.776C137.655 204.139 138.167 204.597 138.573 205.152L140.621 203.84C140.322 203.285 139.906 202.795 139.373 202.368C138.839 201.941 138.221 201.6 137.517 201.344C136.834 201.088 136.098 200.96 135.309 200.96C134.519 200.96 133.751 201.099 133.005 201.376C132.279 201.653 131.682 202.08 131.213 202.656C130.765 203.232 130.541 203.957 130.541 204.832C130.541 205.685 130.754 206.4 131.181 206.976C131.629 207.531 132.173 207.989 132.812 208.352C133.474 208.693 134.125 208.992 134.765 209.248C135.341 209.461 135.885 209.696 136.397 209.952C136.909 210.187 137.325 210.485 137.645 210.848C137.986 211.189 138.157 211.616 138.157 212.128C138.157 212.704 137.943 213.163 137.517 213.504C137.111 213.824 136.546 213.984 135.821 213.984C135.223 213.984 134.669 213.877 134.157 213.664C133.666 213.429 133.229 213.12 132.845 212.736C132.461 212.352 132.119 211.936 131.821 211.488Z" fill="black"/>
<rect x="64" y="38" width="56" height="22" fill="#F6F6F6"/>
<rect x="64" y="328" width="56" height="14" fill="#F6F6F6"/>
<rect x="64" y="381" width="56" height="11.5" fill="#F6F6F6"/>
<rect x="64" y="96" width="56" height="14.5" fill="#F6F6F6"/>
</svg>
