<svg width="179" height="480" viewBox="0 0 179 480" fill="none" xmlns="http://www.w3.org/2000/svg">
<path d="M60.1848 155.011C60.1848 155.011 76.2323 51.0762 130.002 6.59991" stroke="black" stroke-width="15"/>
<path d="M119.763 306.505C119.763 306.505 119.092 417.879 72.1809 474.406" stroke="black" stroke-width="15"/>
<ellipse cx="89.1167" cy="226.5" rx="89" ry="86.5" fill="white"/>
<path d="M38.6767 215.1V237.5H41.3967V215.1H38.6767ZM40.1807 217.66H44.7567C46.2074 217.66 47.3807 218.012 48.2767 218.716C49.194 219.399 49.6527 220.433 49.6527 221.82C49.6527 223.185 49.194 224.22 48.2767 224.924C47.3807 225.628 46.2074 225.98 44.7567 225.98H40.1807V228.54H44.7567C46.2074 228.54 47.498 228.273 48.6287 227.74C49.7807 227.185 50.6874 226.407 51.3487 225.404C52.0314 224.38 52.3727 223.185 52.3727 221.82C52.3727 220.433 52.0314 219.239 51.3487 218.236C50.6874 217.233 49.7807 216.465 48.6287 215.932C47.498 215.377 46.2074 215.1 44.7567 215.1H40.1807V217.66ZM57.9829 222.78H55.4229V237.5H57.9829V222.78ZM62.4309 225.596L63.839 223.484C63.455 223.079 63.0283 222.812 62.5589 222.684C62.1109 222.535 61.6203 222.46 61.0869 222.46C60.4043 222.46 59.7323 222.727 59.0709 223.26C58.4096 223.793 57.8656 224.519 57.4389 225.436C57.0336 226.332 56.8309 227.367 56.8309 228.54H57.9829C57.9829 227.836 58.0469 227.207 58.1749 226.652C58.3243 226.097 58.5803 225.66 58.9429 225.34C59.3056 225.02 59.8069 224.86 60.4469 224.86C60.8736 224.86 61.2256 224.924 61.5029 225.052C61.7803 225.159 62.0896 225.34 62.4309 225.596ZM64.6429 230.14C64.6429 231.612 64.9736 232.935 65.6349 234.108C66.3176 235.26 67.2349 236.167 68.3869 236.828C69.5389 237.489 70.8296 237.82 72.2589 237.82C73.7096 237.82 75.0003 237.489 76.1309 236.828C77.2829 236.167 78.1896 235.26 78.851 234.108C79.5336 232.935 79.875 231.612 79.875 230.14C79.875 228.647 79.5336 227.324 78.851 226.172C78.1896 225.02 77.2829 224.113 76.1309 223.452C75.0003 222.791 73.7096 222.46 72.2589 222.46C70.8296 222.46 69.5389 222.791 68.3869 223.452C67.2349 224.113 66.3176 225.02 65.6349 226.172C64.9736 227.324 64.6429 228.647 64.6429 230.14ZM67.2349 230.14C67.2349 229.116 67.4483 228.209 67.8749 227.42C68.3229 226.609 68.9203 225.98 69.6669 225.532C70.4349 225.084 71.2989 224.86 72.2589 224.86C73.2189 224.86 74.0723 225.084 74.8189 225.532C75.5869 225.98 76.1843 226.609 76.6109 227.42C77.0589 228.209 77.2829 229.116 77.2829 230.14C77.2829 231.164 77.0589 232.071 76.6109 232.86C76.1843 233.649 75.5869 234.279 74.8189 234.748C74.0723 235.196 73.2189 235.42 72.2589 235.42C71.2989 235.42 70.4349 235.196 69.6669 234.748C68.9203 234.279 68.3229 233.649 67.8749 232.86C67.4483 232.071 67.2349 231.164 67.2349 230.14ZM82.9757 216.7C82.9757 217.169 83.1464 217.575 83.4877 217.916C83.829 218.257 84.2344 218.428 84.7037 218.428C85.1944 218.428 85.5997 218.257 85.9197 217.916C86.261 217.575 86.4317 217.169 86.4317 216.7C86.4317 216.209 86.261 215.804 85.9197 215.484C85.5997 215.143 85.1944 214.972 84.7037 214.972C84.2344 214.972 83.829 215.143 83.4877 215.484C83.1464 215.804 82.9757 216.209 82.9757 216.7ZM80.4477 241.148L79.0397 243.26C79.253 243.537 79.4984 243.772 79.7757 243.964C80.053 244.156 80.3624 244.295 80.7037 244.38C81.045 244.487 81.429 244.54 81.8557 244.54C82.7517 244.54 83.5197 244.337 84.1597 243.932C84.7997 243.527 85.2797 242.94 85.5997 242.172C85.941 241.404 86.1117 240.487 86.1117 239.42V222.78H83.5517V239.1C83.5517 239.783 83.4984 240.337 83.3917 240.764C83.285 241.191 83.1144 241.5 82.8797 241.692C82.6664 241.884 82.3784 241.98 82.0157 241.98C81.6744 241.98 81.365 241.905 81.0877 241.756C80.8317 241.607 80.6184 241.404 80.4477 241.148ZM97.0877 237.82C98.6664 237.82 100.032 237.511 101.184 236.892C102.357 236.252 103.328 235.313 104.096 234.076L102.016 232.764C101.482 233.66 100.832 234.332 100.064 234.78C99.2957 235.207 98.4104 235.42 97.4077 235.42C96.405 235.42 95.5517 235.207 94.8477 234.78C94.1437 234.353 93.6104 233.735 93.2477 232.924C92.885 232.113 92.7037 231.132 92.7037 229.98C92.725 228.849 92.917 227.9 93.2797 227.132C93.6637 226.343 94.197 225.745 94.8797 225.34C95.5837 224.913 96.4264 224.7 97.4077 224.7C98.2397 224.7 98.965 224.881 99.5837 225.244C100.202 225.607 100.682 226.108 101.024 226.748C101.386 227.388 101.568 228.145 101.568 229.02C101.568 229.169 101.536 229.361 101.472 229.596C101.408 229.809 101.344 229.969 101.28 230.076L102.304 228.604H91.7437V230.78H104.32C104.32 230.737 104.32 230.641 104.32 230.492C104.341 230.321 104.352 230.161 104.352 230.012C104.352 228.455 104.074 227.111 103.52 225.98C102.965 224.849 102.165 223.985 101.12 223.388C100.096 222.769 98.8584 222.46 97.4077 222.46C95.957 222.46 94.677 222.78 93.5677 223.42C92.4797 224.06 91.6264 224.956 91.0077 226.108C90.4104 227.26 90.1117 228.604 90.1117 230.14C90.1117 231.655 90.3997 232.988 90.9757 234.14C91.573 235.292 92.3944 236.199 93.4397 236.86C94.5064 237.5 95.7224 237.82 97.0877 237.82ZM109.012 230.14C109.012 229.116 109.226 228.209 109.652 227.42C110.1 226.609 110.698 225.98 111.444 225.532C112.212 225.084 113.076 224.86 114.036 224.86C114.826 224.86 115.562 224.988 116.244 225.244C116.948 225.479 117.556 225.799 118.068 226.204C118.58 226.609 118.943 227.057 119.156 227.548V224.348C118.644 223.751 117.908 223.292 116.948 222.972C116.01 222.631 115.039 222.46 114.036 222.46C112.607 222.46 111.316 222.791 110.164 223.452C109.012 224.113 108.095 225.02 107.412 226.172C106.751 227.324 106.42 228.647 106.42 230.14C106.42 231.612 106.751 232.935 107.412 234.108C108.095 235.26 109.012 236.167 110.164 236.828C111.316 237.489 112.607 237.82 114.036 237.82C115.039 237.82 116.01 237.66 116.948 237.34C117.908 236.999 118.644 236.529 119.156 235.932V232.732C118.943 233.201 118.58 233.649 118.068 234.076C117.556 234.481 116.948 234.812 116.244 235.068C115.562 235.303 114.826 235.42 114.036 235.42C113.076 235.42 112.212 235.196 111.444 234.748C110.698 234.279 110.1 233.649 109.652 232.86C109.226 232.071 109.012 231.164 109.012 230.14ZM120.902 222.78V225.18H128.262V222.78H120.902ZM123.302 217.66V237.5H125.862V217.66H123.302ZM131.437 232.988L129.421 234.236C129.699 234.812 130.104 235.377 130.637 235.932C131.192 236.487 131.864 236.945 132.653 237.308C133.443 237.649 134.328 237.82 135.309 237.82C136.824 237.82 138.04 237.393 138.957 236.54C139.896 235.687 140.365 234.62 140.365 233.34C140.365 232.465 140.152 231.751 139.725 231.196C139.32 230.641 138.765 230.172 138.061 229.788C137.357 229.383 136.579 229.009 135.725 228.668C135.213 228.455 134.723 228.231 134.253 227.996C133.784 227.761 133.4 227.495 133.101 227.196C132.803 226.897 132.653 226.556 132.653 226.172C132.653 225.681 132.845 225.319 133.229 225.084C133.613 224.849 134.072 224.732 134.605 224.732C135.373 224.732 136.056 224.913 136.653 225.276C137.272 225.639 137.784 226.097 138.189 226.652L140.237 225.34C139.939 224.785 139.523 224.295 138.989 223.868C138.456 223.441 137.837 223.1 137.133 222.844C136.451 222.588 135.715 222.46 134.925 222.46C134.136 222.46 133.368 222.599 132.621 222.876C131.896 223.153 131.299 223.58 130.829 224.156C130.381 224.732 130.157 225.457 130.157 226.332C130.157 227.185 130.371 227.9 130.797 228.476C131.245 229.031 131.789 229.489 132.429 229.852C133.091 230.193 133.741 230.492 134.381 230.748C134.957 230.961 135.501 231.196 136.013 231.452C136.525 231.687 136.941 231.985 137.261 232.348C137.603 232.689 137.773 233.116 137.773 233.628C137.773 234.204 137.56 234.663 137.133 235.004C136.728 235.324 136.163 235.484 135.437 235.484C134.84 235.484 134.285 235.377 133.773 235.164C133.283 234.929 132.845 234.62 132.461 234.236C132.077 233.852 131.736 233.436 131.437 232.988Z" fill="black"/>
<rect x="78.4755" y="54.4019" width="40" height="23.7982" transform="rotate(-56.5112 78.4755 54.4019)" fill="#F6F6F6"/>
<rect x="57.0674" y="117.48" width="40" height="20.0686" transform="rotate(-71.2659 57.0674 117.48)" fill="#F6F6F6"/>
<rect x="103.195" y="363.758" width="40" height="20.81" transform="rotate(-82.9124 103.195 363.758)" fill="#F6F6F6"/>
<rect x="84.0239" y="428.41" width="40" height="25.9072" transform="rotate(-71.2659 84.0239 428.41)" fill="#F6F6F6"/>
</svg>
