<svg width="1501" height="754" viewBox="0 0 1501 754" fill="none" xmlns="http://www.w3.org/2000/svg">
<rect x="0.5" y="0.706055" width="1500" height="753.294" fill="#FF0000"/>
<ellipse cx="233.205" cy="127" rx="25.6849" ry="25" fill="white"/>
<ellipse cx="165.397" cy="219" rx="35.9589" ry="35" fill="white"/>
<path d="M282.048 474.961C282.048 515.516 248.259 548.461 206.493 548.461C164.727 548.461 130.938 515.516 130.938 474.961C130.938 434.406 164.727 401.461 206.493 401.461C248.259 401.461 282.048 434.406 282.048 474.961Z" stroke="white" stroke-width="3"/>
<rect x="2.14252" y="-0.17215" width="180.646" height="42.3831" rx="21.1915" transform="matrix(0.658302 -0.752754 0.770047 0.637988 1090.33 459.661)" stroke="white" stroke-width="3"/>
<rect x="2.14252" y="-0.17215" width="223.82" height="42.3831" rx="21.1915" transform="matrix(0.658302 -0.752754 0.770047 0.637988 1048.45 407.558)" stroke="white" stroke-width="3"/>
</svg>
