<svg width="179" height="479" viewBox="0 0 179 479" fill="none" xmlns="http://www.w3.org/2000/svg">
<path d="M60.1848 155.011C60.1848 155.011 76.2323 51.0762 130.002 6.59991" stroke="#FF0000" stroke-width="5"/>
<path d="M119.763 306.505C119.763 306.505 119.092 417.879 72.1809 474.406" stroke="#FF0000" stroke-width="5"/>
<ellipse cx="89.1167" cy="226.5" rx="89" ry="86.5" fill="white"/>
<path d="M39.5087 230.716L37.3327 232.188C37.8234 233.169 38.4527 234.097 39.2207 234.972C40.01 235.825 40.9167 236.519 41.9407 237.052C42.986 237.564 44.1167 237.82 45.3327 237.82C46.2287 237.82 47.082 237.671 47.8927 237.372C48.7247 237.073 49.4607 236.647 50.1007 236.092C50.762 235.537 51.274 234.865 51.6367 234.076C52.0207 233.287 52.2127 232.401 52.2127 231.42C52.2127 230.396 52.0314 229.521 51.6687 228.796C51.306 228.049 50.8367 227.42 50.2607 226.908C49.706 226.375 49.098 225.937 48.4367 225.596C47.7754 225.255 47.146 224.977 46.5487 224.764C45.2474 224.316 44.2127 223.868 43.4447 223.42C42.698 222.951 42.1647 222.46 41.8447 221.948C41.5247 221.415 41.3647 220.839 41.3647 220.22C41.3647 219.495 41.642 218.844 42.1967 218.268C42.7514 217.671 43.6367 217.372 44.8527 217.372C45.7274 217.372 46.4634 217.543 47.0607 217.884C47.6794 218.225 48.202 218.663 48.6287 219.196C49.0554 219.729 49.4074 220.273 49.6847 220.828L52.0207 219.484C51.658 218.695 51.1567 217.948 50.5167 217.244C49.8767 216.519 49.098 215.932 48.1807 215.484C47.2847 215.015 46.2287 214.78 45.0127 214.78C43.754 214.78 42.634 215.036 41.6527 215.548C40.6714 216.039 39.9034 216.721 39.3487 217.596C38.794 218.471 38.5167 219.463 38.5167 220.572C38.5167 221.596 38.7087 222.46 39.0927 223.164C39.498 223.868 40.01 224.465 40.6287 224.956C41.2474 225.425 41.898 225.82 42.5807 226.14C43.2634 226.439 43.882 226.684 44.4367 226.876C45.29 227.175 46.09 227.516 46.8367 227.9C47.6047 228.263 48.2234 228.743 48.6927 229.34C49.162 229.937 49.3967 230.737 49.3967 231.74C49.3967 232.764 49.034 233.607 48.3087 234.268C47.5834 234.929 46.6234 235.26 45.4287 235.26C44.5327 235.26 43.7327 235.068 43.0287 234.684C42.3247 234.3 41.6847 233.767 41.1087 233.084C40.554 232.401 40.0207 231.612 39.5087 230.716ZM61.7439 237.82C63.3226 237.82 64.6879 237.511 65.8399 236.892C67.0133 236.252 67.9839 235.313 68.752 234.076L66.6719 232.764C66.1386 233.66 65.488 234.332 64.7199 234.78C63.9519 235.207 63.0666 235.42 62.0639 235.42C61.0613 235.42 60.2079 235.207 59.5039 234.78C58.7999 234.353 58.2666 233.735 57.9039 232.924C57.5413 232.113 57.3599 231.132 57.3599 229.98C57.3813 228.849 57.5733 227.9 57.9359 227.132C58.3199 226.343 58.8533 225.745 59.5359 225.34C60.2399 224.913 61.0826 224.7 62.0639 224.7C62.8959 224.7 63.6213 224.881 64.24 225.244C64.8586 225.607 65.3386 226.108 65.6799 226.748C66.0426 227.388 66.2239 228.145 66.2239 229.02C66.2239 229.169 66.1919 229.361 66.1279 229.596C66.0639 229.809 65.9999 229.969 65.9359 230.076L66.9599 228.604H56.3999V230.78H68.976C68.976 230.737 68.976 230.641 68.976 230.492C68.9973 230.321 69.0079 230.161 69.0079 230.012C69.0079 228.455 68.7306 227.111 68.176 225.98C67.6213 224.849 66.8213 223.985 65.7759 223.388C64.7519 222.769 63.5146 222.46 62.0639 222.46C60.6133 222.46 59.3333 222.78 58.2239 223.42C57.1359 224.06 56.2826 224.956 55.6639 226.108C55.0666 227.26 54.7679 228.604 54.7679 230.14C54.7679 231.655 55.0559 232.988 55.6319 234.14C56.2293 235.292 57.0506 236.199 58.0959 236.86C59.1626 237.5 60.3786 237.82 61.7439 237.82ZM75.0767 222.78H72.5167V237.5H75.0767V222.78ZM79.5247 225.596L80.9327 223.484C80.5487 223.079 80.122 222.812 79.6527 222.684C79.2047 222.535 78.714 222.46 78.1807 222.46C77.498 222.46 76.826 222.727 76.1647 223.26C75.5034 223.793 74.9594 224.519 74.5327 225.436C74.1274 226.332 73.9247 227.367 73.9247 228.54H75.0767C75.0767 227.836 75.1407 227.207 75.2687 226.652C75.418 226.097 75.674 225.66 76.0367 225.34C76.3994 225.02 76.9007 224.86 77.5407 224.86C77.9674 224.86 78.3194 224.924 78.5967 225.052C78.874 225.159 79.1834 225.34 79.5247 225.596ZM82.0542 222.78L89.0942 238.62L96.1342 222.78H93.2542L89.0942 233.18L84.9342 222.78H82.0542ZM98.5479 216.7C98.5479 217.169 98.7186 217.585 99.0599 217.948C99.4226 218.289 99.8386 218.46 100.308 218.46C100.799 218.46 101.215 218.289 101.556 217.948C101.897 217.585 102.068 217.169 102.068 216.7C102.068 216.209 101.897 215.793 101.556 215.452C101.215 215.111 100.799 214.94 100.308 214.94C99.8386 214.94 99.4226 215.111 99.0599 215.452C98.7186 215.793 98.5479 216.209 98.5479 216.7ZM99.0279 222.78V237.5H101.588V222.78H99.0279ZM108.012 230.14C108.012 229.116 108.226 228.209 108.652 227.42C109.1 226.609 109.698 225.98 110.444 225.532C111.212 225.084 112.076 224.86 113.036 224.86C113.826 224.86 114.562 224.988 115.244 225.244C115.948 225.479 116.556 225.799 117.068 226.204C117.58 226.609 117.943 227.057 118.156 227.548V224.348C117.644 223.751 116.908 223.292 115.948 222.972C115.01 222.631 114.039 222.46 113.036 222.46C111.607 222.46 110.316 222.791 109.164 223.452C108.012 224.113 107.095 225.02 106.412 226.172C105.751 227.324 105.42 228.647 105.42 230.14C105.42 231.612 105.751 232.935 106.412 234.108C107.095 235.26 108.012 236.167 109.164 236.828C110.316 237.489 111.607 237.82 113.036 237.82C114.039 237.82 115.01 237.66 115.948 237.34C116.908 236.999 117.644 236.529 118.156 235.932V232.732C117.943 233.201 117.58 233.649 117.068 234.076C116.556 234.481 115.948 234.812 115.244 235.068C114.562 235.303 113.826 235.42 113.036 235.42C112.076 235.42 111.212 235.196 110.444 234.748C109.698 234.279 109.1 233.649 108.652 232.86C108.226 232.071 108.012 231.164 108.012 230.14ZM127.838 237.82C129.416 237.82 130.782 237.511 131.934 236.892C133.107 236.252 134.078 235.313 134.846 234.076L132.766 232.764C132.232 233.66 131.582 234.332 130.814 234.78C130.046 235.207 129.16 235.42 128.158 235.42C127.155 235.42 126.302 235.207 125.598 234.78C124.894 234.353 124.36 233.735 123.998 232.924C123.635 232.113 123.454 231.132 123.454 229.98C123.475 228.849 123.667 227.9 124.03 227.132C124.414 226.343 124.947 225.745 125.63 225.34C126.334 224.913 127.176 224.7 128.158 224.7C128.99 224.7 129.715 224.881 130.334 225.244C130.952 225.607 131.432 226.108 131.774 226.748C132.136 227.388 132.318 228.145 132.318 229.02C132.318 229.169 132.286 229.361 132.222 229.596C132.158 229.809 132.094 229.969 132.03 230.076L133.054 228.604H122.494V230.78H135.07C135.07 230.737 135.07 230.641 135.07 230.492C135.091 230.321 135.102 230.161 135.102 230.012C135.102 228.455 134.824 227.111 134.27 225.98C133.715 224.849 132.915 223.985 131.87 223.388C130.846 222.769 129.608 222.46 128.158 222.46C126.707 222.46 125.427 222.78 124.318 223.42C123.23 224.06 122.376 224.956 121.758 226.108C121.16 227.26 120.862 228.604 120.862 230.14C120.862 231.655 121.15 232.988 121.726 234.14C122.323 235.292 123.144 236.199 124.19 236.86C125.256 237.5 126.472 237.82 127.838 237.82ZM139.218 232.988L137.202 234.236C137.48 234.812 137.885 235.377 138.418 235.932C138.973 236.487 139.645 236.945 140.434 237.308C141.224 237.649 142.109 237.82 143.09 237.82C144.605 237.82 145.821 237.393 146.738 236.54C147.677 235.687 148.146 234.62 148.146 233.34C148.146 232.465 147.933 231.751 147.506 231.196C147.101 230.641 146.546 230.172 145.842 229.788C145.138 229.383 144.36 229.009 143.506 228.668C142.994 228.455 142.504 228.231 142.034 227.996C141.565 227.761 141.181 227.495 140.882 227.196C140.584 226.897 140.434 226.556 140.434 226.172C140.434 225.681 140.626 225.319 141.01 225.084C141.394 224.849 141.853 224.732 142.386 224.732C143.154 224.732 143.837 224.913 144.434 225.276C145.053 225.639 145.565 226.097 145.97 226.652L148.018 225.34C147.72 224.785 147.304 224.295 146.77 223.868C146.237 223.441 145.618 223.1 144.914 222.844C144.232 222.588 143.496 222.46 142.706 222.46C141.917 222.46 141.149 222.599 140.402 222.876C139.677 223.153 139.08 223.58 138.61 224.156C138.162 224.732 137.938 225.457 137.938 226.332C137.938 227.185 138.152 227.9 138.578 228.476C139.026 229.031 139.57 229.489 140.21 229.852C140.872 230.193 141.522 230.492 142.162 230.748C142.738 230.961 143.282 231.196 143.794 231.452C144.306 231.687 144.722 231.985 145.042 232.348C145.384 232.689 145.554 233.116 145.554 233.628C145.554 234.204 145.341 234.663 144.914 235.004C144.509 235.324 143.944 235.484 143.218 235.484C142.621 235.484 142.066 235.377 141.554 235.164C141.064 234.929 140.626 234.62 140.242 234.236C139.858 233.852 139.517 233.436 139.218 232.988Z" fill="black"/>
<rect x="82.9606" y="57.3693" width="40" height="12" transform="rotate(-56.5112 82.9606 57.3693)" fill="#F6F6F6"/>
<rect x="61.5753" y="119.009" width="40" height="12" transform="rotate(-71.2659 61.5753 119.009)" fill="#F6F6F6"/>
<rect x="109.944" y="364.597" width="40" height="12" transform="rotate(-82.9124 109.944 364.597)" fill="#F6F6F6"/>
<rect x="89.1167" y="430.137" width="40" height="12" transform="rotate(-71.2659 89.1167 430.137)" fill="#F6F6F6"/>
</svg>
